# xmcd
#
# Track frame offsets: 
#        150
#        10978
#        21888
#        34704
#        48072
#        61107
#        71603
#        81400
#        91833
#        105853
#        118888
#        132379
#        143170
#        155130
#        163397
#        176091
#        187568
#        203984
#        221694
#        233966
#        247574
#        260409
#        272392
#        285402
#        296274
#        310759
#        324881
#        336116
#        346143
#
# Disc length: 4782 seconds
#
# Revision: 0
# Processed by: cddbd v1.5.2PL0 Copyright (c) Steve Scherf et al.
# Submitted via: ExactAudioCopyFreeDBPlugin 1.0
#
DISCID=9012ac1d
DTITLE=Various Artist - American Soul Connection (1954-1962)
DYEAR=2019
DGENRE=No, thanks.
TTITLE0=Don and Dewey - Littls Sally Walker
TTITLE1=Jessie Hill - Ooh poo pah doo
TTITLE2=Ruth Brown - I burned your letter
TTITLE3=Etta James - All I could do was cry
TTITLE4=James Brown and The Famous Flames - Think
TTITLE5=Eddie Bo - Every dog got his day
TTITLE6=Sam Cooke - Wonderful world
TTITLE7=Ray Charles - Sticks and stones
TTITLE8=Sugar Pie DeSanto - I want to know
TTITLE9=The Falcons - The teacher
TTITLE10=Ike and Tina Turner - A fool in love
TTITLE11=Aaron Neville - Over you
TTITLE12=Sam Cooke - Chain gang
TTITLE13=The Four Tops - Ain't that love
TTITLE14=Carla and Rufus - Cause I love you
TTITLE15=The Drifters - Save the last dance for me
TTITLE16=Ray Charles - Georgia on my mind
TTITLE17=Etta Jones - Don't go strangers
TTITLE18=Jerry Butler - Thanks to you
TTITLE19=The Soul Stirrers - I'm a pilgrim
TTITLE20=Aretha Franklin - Today I sing the blues
TTITLE21=Joe Jones - You talk too much
TTITLE22=The Miracles - Shop around
TTITLE23=Carla Thomas - Gee whiz (Look at his eye)
TTITLE24=Aretha Franklin - Won't be long
TTITLE25=Etta James - At last
TTITLE26=The O'Jays - Miracles
TTITLE27=Otis Redding - Gettin' hip
TTITLE28=The Coasters - Willow weep for me
EXTD=
EXTT0=
EXTT1=
EXTT2=
EXTT3=
EXTT4=
EXTT5=
EXTT6=
EXTT7=
EXTT8=
EXTT9=
EXTT10=
EXTT11=
EXTT12=
EXTT13=
EXTT14=
EXTT15=
EXTT16=
EXTT17=
EXTT18=
EXTT19=
EXTT20=
EXTT21=
EXTT22=
EXTT23=
EXTT24=
EXTT25=
EXTT26=
EXTT27=
EXTT28=
PLAYORDER=
